/vscmnt/brussel_pixiu_data/_data_brussel/112/vsc11236/PredSimResults/SUBJ06mtu3D/worker1.mot
version=1
nRows=5
nColumns=50
inDegrees=yes
endheader
                time	         pelvis_tilt	         pelvis_list	     pelvis_rotation	           pelvis_tx	           pelvis_ty	           pelvis_tz	       hip_flexion_r	     hip_adduction_r	      hip_rotation_r	        knee_angle_r	       ankle_angle_r	         mtp_angle_r	       hip_flexion_l	     hip_adduction_l	      hip_rotation_l	        knee_angle_l	       ankle_angle_l	         mtp_angle_l	    lumbar_extension	      lumbar_bending	     lumbar_rotation	 ercspn_r/activation	 intobl_r/activation	 extobl_r/activation	    abd_r/activation	    add_r/activation	hamstrings_r/activation	bifemsh_r/activation	glut_max_r/activation	iliopsoas_r/activation	rect_fem_r/activation	  vasti_r/activation	gastroc_r/activation	 soleus_r/activation	tib_ant_r/activation	 ercspn_l/activation	 intobl_l/activation	 extobl_l/activation	    abd_l/activation	    add_l/activation	hamstrings_l/activation	bifemsh_l/activation	glut_max_l/activation	iliopsoas_l/activation	rect_fem_l/activation	  vasti_l/activation	gastroc_l/activation	 soleus_l/activation	tib_ant_l/activation	
          0.00000000	         -6.64553452	         -1.08493432	          4.24788370	          0.00000000	          0.93008356	         -0.01046465	         31.31791792	         -0.20187187	         -2.31725825	         -3.91475970	          1.33161634	          0.22411645	        -11.23096470	         -0.15543975	         -0.54749391	         -7.78855231	          8.35108187	         31.64405062	         -6.03115291	         -0.71363019	          0.41320352	          0.17351930	          0.13837069	          0.01000056	          0.01000043	          0.14179231	          0.20169574	          0.29036624	          0.02700552	          0.21114748	          0.01000070	          0.01000012	          0.03138295	          0.01000069	          0.41951690	          0.06838545	          0.01000013	          0.01000021	          0.06727716	          0.01000138	          0.01269452	          0.17980713	          0.04919452	          0.47192216	          0.01001004	          0.01000033	          0.43005429	          0.32361208	          0.01863189	
          0.01260023	         -6.73522645	         -0.98573977	          4.29629136	          0.01703271	          0.92801009	         -0.00965877	         31.54722359	         -0.09958112	         -2.38832934	         -5.72709471	          0.93302970	          0.23188639	        -11.61822235	         -0.15919142	         -0.95460896	         -8.79413886	          7.54600174	         33.54591707	         -5.71163194	         -0.50102086	          0.04914182	          0.15002396	          0.11435570	          0.01000031	          0.01000002	          0.23125796	          0.18180603	          0.23997283	          0.07328673	          0.17450151	          0.01000118	          0.01000008	          0.02593846	          0.01464159	          0.43200104	          0.11616173	          0.01000014	          0.01000018	          0.05560080	          0.02933907	          0.01544573	          0.14860058	          0.04595072	          0.49193623	          0.01207767	          0.01217839	          0.40210918	          0.30791513	          0.01539822	
          0.02520046	         -6.80654191	         -0.91399333	          4.31791633	          0.03450119	          0.92615581	         -0.00878534	         31.54297561	         -0.03811431	         -2.32212763	         -7.48712600	          0.55234751	          0.19824808	        -11.82991768	         -0.20589980	         -1.37678292	        -10.17984996	          6.62632754	         35.52126675	         -5.36516590	         -0.24911831	         -0.30938834	          0.12398901	          0.09450881	          0.01000026	          0.03954874	          0.19112187	          0.16791183	          0.19832573	          0.10147005	          0.14421568	          0.01000022	          0.01000007	          0.02143671	          0.01210049	          0.51562884	          0.10339125	          0.01000010	          0.01000026	          0.04595094	          0.02425017	          0.01749739	          0.12281012	          0.03797576	          0.48996605	          0.01000230	          0.01627269	          0.36953309	          0.28576274	          0.01272577	
          0.03780069	         -6.86218070	         -0.85576023	          4.30592713	          0.05212621	          0.92468531	         -0.00777916	         31.36543869	          0.02949936	         -2.29472320	         -8.94543094	         -0.00550483	          0.18414105	        -11.76883518	         -0.28710382	         -1.81588603	        -12.07367552	          5.54555122	         37.56469938	         -5.02810190	          0.01645091	         -0.65276278	          0.14107786	          0.07810627	          0.01000030	          0.09644456	          0.21296234	          0.14827289	          0.16390560	          0.13433539	          0.11918615	          0.01000016	          0.01000006	          0.01771625	          0.01000041	          0.58911366	          0.11219376	          0.01000011	          0.01000022	          0.03797587	          0.02004578	          0.04293411	          0.10149576	          0.03138486	          0.47571677	          0.01000332	          0.01601215	          0.31797503	          0.25459071	          0.01051715	
          0.05040092	         -6.90078275	         -0.80580791	          4.26517768	          0.06966835	          0.92372910	         -0.00666119	         31.12497681	          0.11308809	         -2.28951972	        -10.31585078	         -0.51650566	          0.14908995	        -11.36056773	         -0.40257555	         -2.27669228	        -14.57343102	          4.26893035	         39.59603890	         -4.72813765	          0.29194353	         -0.97718356	          0.15634870	          0.06455047	          0.01000025	          0.15356027	          0.26217703	          0.13325273	          0.13545894	          0.19286184	          0.09850065	          0.01000023	          0.01000019	          0.01464152	          0.01000033	          0.61702625	          0.15363340	          0.01000013	          0.01000018	          0.03138493	          0.09184691	          0.03553685	          0.08388069	          0.02593784	          0.44662257	          0.01000264	          0.01323320	          0.26278849	          0.21040497	          0.01000003	
